<?xml version="1.0" encoding="UTF-8" standalone="no"?>
<!-- Generator: Adobe Illustrator 16.1.0, SVG Export Plug-In . SVG Version: 6.00 Build 0)  -->
<svg xmlns:rdf="http://www.w3.org/1999/02/22-rdf-syntax-ns#" xmlns="http://www.w3.org/2000/svg" enable-background="new 0 0 48 48" xml:space="preserve" height="48px" viewBox="0 0 48 48" width="48px" version="1.1" y="0px" x="0px" xmlns:cc="http://creativecommons.org/ns#" xmlns:dc="http://purl.org/dc/elements/1.1/"><metadata><rdf:RDF><cc:Work rdf:about=""><dc:format>image/svg+xml</dc:format><dc:type rdf:resource="http://purl.org/dc/dcmitype/StillImage"/><dc:title/></cc:Work></rdf:RDF></metadata><path d="m25 8h-12v32h22v-23c0-4.123-8-1-8-1 1-4 0-8-2-8z" fill="#fff"/><path d="m28 6h-17v36h26v-28l-9-8zm7 34h-22v-32h12c2 0 3 4 2 8 0 0 8-3.123 8 1v23z" fill="#333"/><g fill="#00000c"><path d="m24.084 18.713-2.0905 2.0905-2.7395 2.4431 0.02144 4.4567 3.3299-3.3299 0.07392 9.3902h2.9573l-0.07392-9.3902 3.3299 3.3299-0.1264-4.456-2.5916-2.4431z" stroke-width=".36345"/><g stroke-width=".20339"><path d="m11.064 23.919v-17.899h16.796l4.5172 4.006 4.5172 4.006v27.785h-25.83zm24 4.2986c0-11.696-0.0095-11.985-0.40996-12.494-0.85456-1.0864-2.9897-1.2122-5.9835-0.35266-0.77572 0.22272-1.4299 0.3837-1.4537 0.35773-0.02384-0.02597 0.04587-0.59638 0.1549-1.2676 0.35486-2.1844-0.10011-4.6888-1.061-5.8403l-0.557-0.6685-6.43-0.059-6.429-0.0591v16.043c0 8.8232 0.06102 16.103 0.13559 16.178 0.07458 0.07458 5.0627 0.13559 11.085 0.13559h10.949z"/><path d="m11.064 23.919v-17.899l8.3898 0.00607 8.3898 0.00607 4.5254 4.0077 4.5254 4.0077v27.769h-25.83zm23.997 4.4237c-0.0023-9.0618-0.06274-11.967-0.25707-12.356-0.61158-1.224-2.4961-1.5076-5.3969-0.81214-0.92997 0.22294-1.7594 0.40536-1.8432 0.40536-0.08379 0-0.14846-1.0754-0.14369-2.3898 0.0075-2.0664-0.05407-2.5271-0.45487-3.4042-0.94363-2.0651-0.42484-1.9347-7.6994-1.9347h-6.371v16.034c0 8.8186 0.06102 16.095 0.13559 16.169 0.07458 0.07458 5.0627 0.13559 11.085 0.13559h10.949l-0.003-11.847z"/><path d="m11.064 23.919v-17.899h16.79l4.5205 3.994 4.5205 3.994v27.809h-25.831zm23.999 4.7288c-0.000814-7.3921-0.07749-11.817-0.21348-12.307-0.41499-1.4943-1.9706-1.8482-5.2072-1.1844-1.1362 0.233-2.1124 0.42365-2.1692 0.42365-0.05686 0-0.1025-1.0297-0.10143-2.2881 0.0016-1.8375-0.08277-2.513-0.42825-3.43-0.7547-2.0031-0.35335-1.8998-7.6643-1.973l-6.387-0.063934 0.05208 16.021 0.05208 16.021 0.50848 0.14142c0.27966 0.07778 5.2449 0.15055 11.034 0.1617l10.525 0.02027-0.0012-11.542z"/><path d="m10.861 23.919v-18.102h17.117l4.5455 4.0169 4.5455 4.0169 0.01468 14.085 0.01469 14.085h-26.237zm24 4.2578c0-7.711-0.07268-11.946-0.20942-12.201-0.11518-0.21522-0.49949-0.5413-0.85402-0.72464-0.84767-0.43834-3.3802-0.28311-5.3121 0.32562-0.7659 0.24132-1.4214 0.40948-1.4566 0.37368-0.03523-0.0358 0.02929-0.56848 0.14338-1.1837 0.404-2.177-0.158-5.3908-1.09-6.2346-0.382-0.3464-0.918-0.3812-6.7-0.4356l-6.284-0.0592v15.838c0 8.7114 0.06102 15.9 0.13559 15.974 0.07458 0.07458 4.9712 0.13559 10.881 0.13559h10.746z"/><path d="m10.861 23.919v-18.102l8.3898 0.00278c4.6144 0.00153 8.5958 0.057965 8.8475 0.12542 0.2517 0.067452 0.45763 0.24925 0.45763 0.404s0.09687 0.28136 0.21528 0.28136c0.1184 0 0.59067 0.41248 1.0495 0.91662 0.45881 0.50414 0.87646 0.87437 0.92811 0.82272s0.44067 0.24519 0.86449 0.65965c1.4467 1.4148 2.4223 2.279 2.5726 2.279 0.0826 0 0.52414 0.38898 0.98119 0.86441 0.45706 0.47542 1.0269 1.0047 1.2664 1.1762l0.43538 0.31179 0.07523 14.18 0.07522 14.18h-26.158zm24 4.1861c0-6.5349-0.05685-12.03-0.12634-12.211-0.37731-0.98326-3.111-1.2242-5.8737-0.51759-0.87477 0.22373-1.6066 0.40678-1.6263 0.40678-0.01968 0 0.0066-0.95216 0.05832-2.1159 0.07818-1.7578 0.02128-2.3557-0.33617-3.5325-0.237-0.7795-0.583-1.5435-0.769-1.698-0.351-0.2919-0.985-0.3218-9.174-0.4322l-3.916-0.0528v32.034h21.762z"/></g></g><g stroke-width=".20339"><path d="m10.861 23.919v-18.102h8.454c5.2924 0 8.5973 0.07668 8.8372 0.20504 0.21072 0.11277 0.7922 0.60832 1.2922 1.1012 0.49998 0.4929 0.96224 0.84301 1.0272 0.77801 0.065-0.064998 0.11818 0.034364 0.11818 0.2208s0.1321 0.33898 0.29355 0.33898 0.41315 0.1627 0.55932 0.36155 0.54035 0.57155 0.87594 0.82822 1.134 0.96346 1.7743 1.5707c0.64028 0.60719 1.2121 1.104 1.2707 1.104 0.05861 0 0.42122 0.29746 0.80581 0.66102l0.69925 0.66102 0.10434 14.186 0.10435 14.186h-26.216zm23.997 4.1186c-0.0016-6.572-0.07036-12.046-0.15254-12.164-0.6948-1.0005-3.0938-1.2095-5.7564-0.50147-0.83142 0.2211-1.5653 0.40415-1.6308 0.40678-0.06554 0.0026-0.07649-0.95481-0.02433-2.1276 0.08107-1.8228 0.02845-2.3389-0.36233-3.5542-0.252-0.7836-0.598-1.5401-0.77-1.6827-0.32-0.266-1.13-0.3024-9.148-0.4105l-3.916-0.0528v32.034h21.762l-0.0031-11.949z" fill="#00f"/><path d="m10.861 23.919v-18.102l8.6949 0.00818 8.6949 0.00818 2.7458 2.4415c1.5102 1.3428 3.4972 3.101 4.4157 3.9071l1.67 1.4656 0.008 14.186 0.008 14.186h-26.238zm24 13.068c-0.000139-1.65-0.06097-7.0605-0.13519-12.023l-0.135-9.024-0.628-0.383c-0.884-0.539-3.012-0.506-5.204 0.08l-1.7288 0.4624v-2.7512c0-2.4037-0.0564-2.8734-0.44656-3.7181-0.262-0.5695-0.638-1.0394-0.914-1.1428-0.258-0.0966-3.192-0.2196-6.52-0.2732l-6.0508-0.097601 0.000193 4.0876c0.000106 2.2482 0.06084 9.3716 0.13497 15.83l0.13478 11.742 4.7972 0.05831c2.6385 0.03207 7.4744 0.07945 10.746 0.1053l5.9492 0.04699-0.000203-3z" fill="#00f"/><path d="m22.658 28.957v-4.724l-1.6271 1.6176-1.6271 1.6176 0.01285-2.1308 0.01285-2.1308 2.3389-2.2212 2.3389-2.2212 2.3262 2.3196 2.3262 2.3196v4.0648l-1.6271-1.6176-1.6271-1.6176v9.448h-2.8474z" fill="#000080"/><path d="m10.861 23.919v-18.102h17.32l2.6789 2.3597c1.4734 1.2978 3.476 3.0597 4.4504 3.9153l1.7715 1.5555 0.0082 14.186 0.0081 14.186h-26.237zm23.932 7.0678c-0.07402-4.95-0.1347-10.351-0.13484-12.003l-0.00025-3.003-0.66102-0.41732c-0.58214-0.36752-0.89159-0.40546-2.5932-0.31795-1.0627 0.05465-2.4814 0.27424-3.1525 0.48796l-1.2203 0.3886v-2.7626c0-2.5416-0.04068-2.8434-0.50847-3.7735-0.392-0.7788-0.65-1.0439-1.12-1.1514-0.335-0.0769-3.256-0.1811-6.49-0.2318l-5.881-0.092 0.134 12.124c0.07375 6.6682 0.13435 13.793 0.13467 15.832l0.000584 3.7082 4.8305 0.05839c2.6568 0.03212 7.5225 0.07953 10.813 0.10538l5.9823 0.04699z" fill="#00a"/><path d="m22.698 29.105c0-2.5169-0.06662-4.5763-0.14804-4.5763s-0.85939 0.70717-1.7288 1.5715l-1.5808 1.5715v-4.403l1.0678-0.94333c0.58729-0.51883 1.6842-1.5304 2.4376-2.2479l1.3698-1.3046 2.3245 2.2168 2.3245 2.2168 0.01758 2.2325 0.01757 2.2325-1.6271-1.6176-1.6271-1.6176v9.2446h-2.8474z" fill="#00a"/></g></svg>
